<svg xmlns="http://www.w3.org/2000/svg" width="19.695" height="19.691" viewBox="0 0 19.695 19.691">
  <path id="instagram" d="M9.775,36.622a5.048,5.048,0,1,0,5.048,5.048A5.04,5.04,0,0,0,9.775,36.622Zm0,8.331a3.282,3.282,0,1,1,3.282-3.282A3.288,3.288,0,0,1,9.775,44.952Zm6.432-8.537a1.178,1.178,0,1,1-1.178-1.178A1.175,1.175,0,0,1,16.207,36.415Zm3.344,1.2a5.827,5.827,0,0,0-1.591-4.126,5.866,5.866,0,0,0-4.126-1.591c-1.626-.092-6.5-.092-8.124,0A5.857,5.857,0,0,0,1.585,33.48,5.846,5.846,0,0,0-.006,37.606c-.092,1.626-.092,6.5,0,8.124a5.827,5.827,0,0,0,1.591,4.126A5.873,5.873,0,0,0,5.71,51.446c1.626.092,6.5.092,8.124,0a5.827,5.827,0,0,0,4.126-1.591,5.866,5.866,0,0,0,1.591-4.126C19.643,44.1,19.643,39.236,19.551,37.61Zm-2.1,9.864a3.323,3.323,0,0,1-1.872,1.872c-1.3.514-4.372.4-5.8.4s-4.512.114-5.8-.4A3.323,3.323,0,0,1,2.1,47.474c-.514-1.3-.4-4.372-.4-5.8s-.114-4.512.4-5.8a3.323,3.323,0,0,1,1.872-1.872c1.3-.514,4.372-.4,5.8-.4s4.512-.114,5.8.4a3.323,3.323,0,0,1,1.872,1.872c.514,1.3.4,4.372.4,5.8S17.965,46.183,17.451,47.474Z" transform="translate(0.075 -31.825)" fill="#fff"/>
</svg>
