<svg xmlns="http://www.w3.org/2000/svg" width="16.872" height="21.93" viewBox="0 0 16.872 21.93">
  <path id="pinterest-p" d="M8.963,6.5C4.455,6.5,0,9.505,0,14.369c0,3.093,1.74,4.851,2.794,4.851.435,0,.685-1.213.685-1.555,0-.409-1.041-1.279-1.041-2.979A5.938,5.938,0,0,1,8.607,8.649c2.992,0,5.207,1.7,5.207,4.824,0,2.333-.936,6.709-3.968,6.709a1.951,1.951,0,0,1-2.03-1.924c0-1.661,1.16-3.269,1.16-4.983,0-2.909-4.126-2.381-4.126,1.134a5.162,5.162,0,0,0,.422,2.228c-.606,2.61-1.845,6.5-1.845,9.187,0,.83.119,1.648.2,2.478.149.167.075.149.3.066,2.214-3.032,2.135-3.625,3.137-7.592a3.564,3.564,0,0,0,3.045,1.582c4.666,0,6.762-4.548,6.762-8.647C16.872,9.347,13.1,6.5,8.963,6.5Z" transform="translate(0 -6.5)" fill="#fff"/>
</svg>
