<svg xmlns="http://www.w3.org/2000/svg" viewBox="0 0 609.8829 187.0284"><defs><style>.cls-1{fill:#1e1e1e;}.cls-2{fill:#bdea18;}.cls-3{fill:#fc3f4d;}.cls-4{fill:#fff;}</style></defs><g id="Laag_2" data-name="Laag 2"><g id="Layer_1" data-name="Layer 1"><path class="cls-1" d="M250.7858,65.233h9.5215v7.7007h6.86v7.8408h-6.86V94.9161c0,5.46,1.68,6.58,5.3906,6.58a15.9839,15.9839,0,0,0,1.75-.0694v8.2608a19.7318,19.7318,0,0,1-4.1309.35c-8.751,0-12.6015-4.9-12.6015-14.8408V80.7745h-3.85V72.9337h3.92Z"/><path class="cls-1" d="M306.1578,88.4053v21.1416H296.567V87.2852c0-4.0605-2.8-6.581-6.0908-6.581-4.06,0-6.65,2.94-6.65,6.8613v21.9814h-9.6611V58.9322h9.6611v18.272a11.2844,11.2844,0,0,1,9.6611-5.1807C303.9879,72.0235,306.1578,80.6343,306.1578,88.4053Z"/><path class="cls-1" d="M314.275,94.0762V72.9337h9.6607V95.1964c0,4.06,2.8008,6.58,6.0918,6.58,3.99,0,6.51-2.94,6.51-6.86V72.9337h9.6621v36.6132h-9.4511v-4.2695a11.5538,11.5538,0,0,1-9.8008,5.18C316.5153,110.4571,314.275,101.8467,314.275,94.0762Z"/><path class="cls-1" d="M359.215,58.5821a5.5309,5.5309,0,1,1-5.6,5.5308A5.4888,5.4888,0,0,1,359.215,58.5821Zm-4.76,14.3516h9.66v36.6132h-9.66Z"/><path class="cls-1" d="M370.3439,103.6671l5.6719-5.0411a10.44,10.44,0,0,0,8.4,3.99c2.7305,0,4.4805-1.1895,4.4805-3.29,0-5.6-17.293-3.4306-17.293-16.4516,0-6.79,5.8106-10.8511,13.3028-10.8511,6.93,0,10.7812,3.6406,12.5312,6.5107l-6.3711,4.76a8.2745,8.2745,0,0,0-6.58-3.5c-2.24,0-3.7813,1.12-3.7813,2.94,0,5.8106,17.3613,3.0108,17.3613,16.1016,0,7.1406-6.16,11.6211-14.07,11.6211C376.7853,110.4571,372.3048,106.8175,370.3439,103.6671Z"/><path class="cls-1" d="M429.4982,86.0948l-6.791,23.4521H411.9259L401.004,72.9337h10.502l6.4394,25.9726,7.002-25.9726h9.1l6.9316,25.9726,6.51-25.9726H457.99l-10.9922,36.6132H436.2189Z"/><path class="cls-1" d="M467.9943,58.5821a5.531,5.531,0,1,1-5.6016,5.5308A5.4884,5.4884,0,0,1,467.9943,58.5821Zm-4.7617,14.3516h9.6621v36.6132h-9.6621Z"/><path class="cls-1" d="M513.4962,88.4053v21.1416h-9.66V87.2852c0-4.0605-2.8008-6.581-6.0918-6.581-3.99,0-6.51,2.94-6.51,6.8613v21.9814h-9.6621V72.9337h9.4512v4.27a11.5521,11.5521,0,0,1,9.8007-5.1807C511.256,72.0235,513.4962,80.6343,513.4962,88.4053Z"/><path class="cls-1" d="M521.8224,58.9322h9.6621V88.335l11.76-15.4013h10.8515L541.215,89.5255l13.8613,20.0214H543.7345l-12.25-18.9013v18.9013h-9.6621Z"/><path class="cls-1" d="M576.0743,72.0235c11.3418,0,17.7813,7.5606,17.7813,19.5322,0,.7,0,1.4-.0684,2.1H568.0236c.2109,4.9014,4.1308,8.4014,9.5215,8.4014a10.6938,10.6938,0,0,0,8.8906-4.4805l6.3711,4.83c-1.4,2.5908-6.3008,8.0508-15.4024,8.0508-11.7617,0-19.2519-8.12-19.2519-19.1113C558.1525,80.2842,565.6427,72.0235,576.0743,72.0235Zm7.9805,15.332a7.4761,7.4761,0,0,0-7.84-7.4213c-4.5508,0-7.49,3.2207-7.91,7.4213Z"/><path class="cls-1" d="M600.2228,58.9322h9.66v50.6147h-9.66Z"/><path class="cls-1" d="M272.6159,147.7022l-9.0352,26.8457h-5.6553L246.55,140.7462h5.59l8.8408,27.8213s.0644-.13,9.1006-27.8213h5.0693c8.9707,27.6914,9.0361,27.8213,9.0361,27.8213l8.9053-27.8213h5.59l-11.44,33.8017h-5.6552Z"/><path class="cls-1" d="M315.3209,153.0323c4.29,0,7.5406,1.625,8.9058,3.0547v-4.16c0-4.7451-3.1856-7.4746-8.1909-7.4746a19.38,19.38,0,0,0-9.9453,2.9248l-2.08-3.77a23.8233,23.8233,0,0,1,12.4805-3.7051c9.23,0,12.8706,5.1358,12.8706,12.3506v22.2959h-4.42l-.5859-2.86c-1.7539,2.0156-4.6147,3.705-9.1655,3.705-7.41,0-12.87-4.68-12.87-11.2451C302.32,157.712,307.7155,153.0323,315.3209,153.0323Zm.7149,18.07c4.9409,0,8.3843-2.9248,8.3843-7.02,0-4.2246-3.379-6.9551-8.45-6.9551-5.1347,0-8.45,2.99-8.45,6.9551C307.52,167.9825,310.8356,171.1026,316.0358,171.1026Z"/><path class="cls-1" d="M349.381,153.0323c4.2891,0,7.5391,1.625,8.9043,3.0547v-4.16c0-4.7451-3.1856-7.4746-8.19-7.4746a19.3777,19.3777,0,0,0-9.9453,2.9248l-2.08-3.77a23.8207,23.8207,0,0,1,12.4805-3.7051c9.2305,0,12.8692,5.1358,12.8692,12.3506v22.2959H359l-.584-2.86c-1.7558,2.0156-4.6152,3.705-9.166,3.705-7.41,0-12.8711-4.68-12.8711-11.2451C336.379,157.712,341.7755,153.0323,349.381,153.0323Zm.7148,18.07c4.94,0,8.3848-2.9248,8.3848-7.02,0-4.2246-3.3809-6.9551-8.4512-6.9551-5.1347,0-8.4492,2.99-8.4492,6.9551C341.58,167.9825,344.8947,171.1026,350.0958,171.1026Z"/><path class="cls-1" d="M387.7951,145.0372c-7.7364,0-10.01,6.1094-10.01,13.3252v16.1855h-5.1367V140.7462h5.07v5.6552c1.17-3.38,4.9414-6.5,10.0762-6.5Z"/><path class="cls-1" d="M394.4884,127.5508h5.1367v18.6563a13.98,13.98,0,0,1,11.959-6.3057c9.5567,0,16.1211,7.41,16.1211,17.8106,0,10.3359-6.8906,17.6806-16.51,17.6806a13.984,13.984,0,0,1-11.7656-6.1748v5.33h-4.9414Zm16.3809,43.2266c6.5,0,11.57-5.1348,11.57-13,0-7.7353-4.8106-13.1953-11.44-13.1953-6.3711,0-11.57,4.81-11.57,13.1953C399.43,164.8624,403.85,170.7774,410.8693,170.7774Z"/><path class="cls-1" d="M450.5861,139.9014c10.205,0,17.6152,7.6055,17.6152,17.7461A17.2754,17.2754,0,0,1,450.52,175.3926c-10.1407,0-17.6153-7.4746-17.6153-17.7451A17.2752,17.2752,0,0,1,450.5861,139.9014ZM450.52,170.713c7.2812,0,12.48-5.5254,12.48-13.0655,0-7.4756-5.1992-13.0654-12.48-13.0654-7.2793,0-12.35,5.6553-12.35,13.0654C438.17,165.253,443.3048,170.713,450.52,170.713Z"/><path class="cls-1" d="M490.8185,145.0372c-7.7344,0-10.01,6.1094-10.01,13.3252v16.1855H475.674V140.7462h5.07v5.6552c1.17-3.38,4.9394-6.5,10.0742-6.5Z"/><path class="cls-1" d="M501.1544,179.6182a21.1794,21.1794,0,0,0,10.2051,2.795c6.4356,0,11.8945-2.6651,11.8945-10.2051v-2.99a13.6083,13.6083,0,0,1-11.6992,6.1748c-9.6855,0-16.3164-7.3447-16.3164-17.6806,0-10.4,6.6953-17.8106,16.25-17.8106a14.0388,14.0388,0,0,1,11.9609,6.3057v-5.4609h4.9395v29.1211c0,12.8056-7.2148,17.1611-16.9648,17.1611a24.6936,24.6936,0,0,1-12.09-3.38Zm10.7246-35.0361c-6.5644,0-11.4394,5.3945-11.4394,13.13,0,7.8652,5.0683,13.001,11.57,13.001,6.9551,0,11.4394-5.7207,11.4394-13.001C523.4493,149.5216,518.3146,144.5821,511.879,144.5821Z"/><path class="cls-1" d="M101.05,0,0,58.3413V175.3044H202.1V58.3413Zm90.2591,164.5133H106.4458V119.7977l84.8635-48.9959Zm-95.6547,0H10.7912V70.8018l84.8634,48.9959Zm5.3956-54.0609L16.1868,61.4564,101.05,12.46l84.8635,48.996Z"/><polygon class="cls-2" points="191.309 70.802 106.446 119.798 106.446 164.513 191.309 164.513 191.309 70.802"/><polygon class="cls-3" points="10.791 164.513 95.655 164.513 95.655 119.798 10.791 70.802 10.791 164.513"/><polygon class="cls-4" points="16.187 61.456 101.05 110.452 185.914 61.456 101.05 12.46 16.187 61.456"/></g></g></svg>