<svg id="Ebene_1" data-name="Ebene 1" xmlns="http://www.w3.org/2000/svg" viewBox="0 0 214 172"><defs><style>.cls-1{fill:#d40e14;}</style></defs><title>master_PICT_A3CPM</title><path class="cls-1" d="M10.76,48.32H61.32c5,0,8.69,1.57,10.16,8.61,1.63,7.83,1,13.28-7.85,13.9L47.76,72c11.68,73.82,80,97.88,117.18,18.38,6.16-13.16,8.17-15.56,14.91-13.88,9.14,2.27,10.39,7,6,20.24-32.16,98-140.23,107.83-161.43-23.05l-12.89.93c-10.49.75-10.91-8.1-10.91-13,0-9.74,3.61-13.22,10.11-13.22h0Z"/><path class="cls-1" d="M194.58,0.93a18.76,18.76,0,1,1-18.76,18.76A18.76,18.76,0,0,1,194.58.93h0Z"/></svg>