<svg xmlns="http://www.w3.org/2000/svg" width="22.496" height="18.271" viewBox="0 0 22.496 18.271">
  <path id="twitter" d="M20.184,52.635c.014.2.014.4.014.6A13.028,13.028,0,0,1,7.08,66.353,13.029,13.029,0,0,1,0,64.283a9.535,9.535,0,0,0,1.113.057,9.233,9.233,0,0,0,5.724-1.97,4.619,4.619,0,0,1-4.311-3.2,5.814,5.814,0,0,0,.871.071,4.876,4.876,0,0,0,1.213-.157,4.611,4.611,0,0,1-3.7-4.525v-.057A4.643,4.643,0,0,0,3,55.091,4.617,4.617,0,0,1,1.57,48.924a13.105,13.105,0,0,0,9.507,4.825,5.2,5.2,0,0,1-.114-1.056,4.615,4.615,0,0,1,7.979-3.155,9.077,9.077,0,0,0,2.926-1.113,4.6,4.6,0,0,1-2.027,2.541,9.243,9.243,0,0,0,2.655-.714,9.911,9.911,0,0,1-2.312,2.384Z" transform="translate(0 -48.082)" fill="#fff"/>
</svg>
