<svg xmlns="http://www.w3.org/2000/svg" width="19.684" height="19.684" viewBox="0 0 19.684 19.684">
  <path id="whatsapp" d="M16.736,34.86A9.757,9.757,0,0,0,1.384,46.631L0,51.684l5.171-1.358a9.724,9.724,0,0,0,4.662,1.186h0a9.692,9.692,0,0,0,6.9-16.652Zm-6.9,15.009a8.093,8.093,0,0,1-4.13-1.129l-.294-.176-3.067.8.817-2.992-.193-.308a8.123,8.123,0,1,1,15.066-4.31A8.2,8.2,0,0,1,9.838,49.869ZM14.284,43.8c-.242-.123-1.441-.712-1.665-.791s-.387-.123-.549.123-.628.791-.773.958-.286.185-.527.062a6.634,6.634,0,0,1-3.317-2.9c-.25-.431.25-.4.716-1.331a.452.452,0,0,0-.022-.426c-.062-.123-.549-1.323-.751-1.81s-.4-.409-.549-.417-.3-.009-.466-.009a.9.9,0,0,0-.65.3,2.739,2.739,0,0,0-.852,2.034,4.775,4.775,0,0,0,.993,2.522A10.891,10.891,0,0,0,10.035,45.8a4.769,4.769,0,0,0,2.926.611,2.5,2.5,0,0,0,1.643-1.16,2.038,2.038,0,0,0,.141-1.16C14.688,43.977,14.526,43.916,14.284,43.8Z" transform="translate(0 -32)" fill="#fff"/>
</svg>
